<svg width="128" height="128" viewBox="0 0 256 256" fill="none" xmlns="http://www.w3.org/2000/svg">
<g clip-path="url(#clip0_1082_267)">
<path d="M206.4 107.093C199.147 70.2934 166.827 42.6667 128 42.6667C97.1733 42.6667 70.4 60.16 57.0667 85.76C24.96 89.1734 0 116.373 0 149.333C0 184.64 28.6933 213.333 64 213.333H202.667C232.107 213.333 256 189.44 256 160C256 131.84 234.133 109.013 206.4 107.093ZM149.333 138.667V181.333H106.667V138.667H74.6667L124.267 89.0667C126.4 86.9334 129.707 86.9334 131.84 89.0667L181.333 138.667H149.333Z" />
</g>
<defs>
<clipPath id="clip0_1082_267">
<rect width="256" height="256" fill="white"/>
</clipPath>
</defs>
</svg>
